<svg width="148" height="24" viewBox="0 0 148 24" fill="none" xmlns="http://www.w3.org/2000/svg">
<path d="M18.104 7.768C18.104 9.06933 17.8053 10.264 17.208 11.352C16.6107 12.4187 15.6933 13.2827 14.456 13.944C13.2187 14.6053 11.6827 14.936 9.848 14.936H6.456V23H0.984V0.535999H9.848C11.64 0.535999 13.1547 0.845332 14.392 1.464C15.6293 2.08267 16.5573 2.936 17.176 4.024C17.7947 5.112 18.104 6.36 18.104 7.768ZM9.432 10.584C10.4773 10.584 11.256 10.3387 11.768 9.848C12.28 9.35733 12.536 8.664 12.536 7.768C12.536 6.872 12.28 6.17867 11.768 5.688C11.256 5.19733 10.4773 4.952 9.432 4.952H6.456V10.584H9.432ZM19.8648 14.04C19.8648 12.2053 20.2061 10.5947 20.8888 9.208C21.5928 7.82133 22.5421 6.75467 23.7368 6.008C24.9314 5.26133 26.2648 4.888 27.7368 4.888C28.9954 4.888 30.0941 5.144 31.0328 5.656C31.9928 6.168 32.7288 6.84 33.2408 7.672V5.144H38.7128V23H33.2408V20.472C32.7074 21.304 31.9608 21.976 31.0008 22.488C30.0621 23 28.9634 23.256 27.7048 23.256C26.2541 23.256 24.9314 22.8827 23.7368 22.136C22.5421 21.368 21.5928 20.2907 20.8888 18.904C20.2061 17.496 19.8648 15.8747 19.8648 14.04ZM33.2408 14.072C33.2408 12.7067 32.8568 11.6293 32.0888 10.84C31.3421 10.0507 30.4248 9.656 29.3368 9.656C28.2488 9.656 27.3208 10.0507 26.5528 10.84C25.8061 11.608 25.4328 12.6747 25.4328 14.04C25.4328 15.4053 25.8061 16.4933 26.5528 17.304C27.3208 18.0933 28.2488 18.488 29.3368 18.488C30.4248 18.488 31.3421 18.0933 32.0888 17.304C32.8568 16.5147 33.2408 15.4373 33.2408 14.072ZM68.3035 5.144L63.4715 23H57.4235L54.6075 11.416L51.6955 23H45.6795L40.8155 5.144H46.2875L48.8155 17.912L51.8235 5.144H57.6155L60.6555 17.848L63.1515 5.144H68.3035ZM69.4622 11.736C69.4622 9.51733 69.9423 7.544 70.9023 5.816C71.8623 4.06667 73.1956 2.712 74.9023 1.752C76.6303 0.770665 78.5823 0.279999 80.7583 0.279999C83.4249 0.279999 85.7076 0.983999 87.6063 2.392C89.5049 3.8 90.7743 5.72 91.4143 8.152H85.3983C84.9503 7.21333 84.3103 6.49867 83.4783 6.008C82.6676 5.51733 81.7396 5.272 80.6943 5.272C79.0089 5.272 77.6436 5.85867 76.5983 7.032C75.5529 8.20533 75.0303 9.77333 75.0303 11.736C75.0303 13.6987 75.5529 15.2667 76.5983 16.44C77.6436 17.6133 79.0089 18.2 80.6943 18.2C81.7396 18.2 82.6676 17.9547 83.4783 17.464C84.3103 16.9733 84.9503 16.2587 85.3983 15.32H91.4143C90.7743 17.752 89.5049 19.672 87.6063 21.08C85.7076 22.4667 83.4249 23.16 80.7583 23.16C78.5823 23.16 76.6303 22.68 74.9023 21.72C73.1956 20.7387 71.8623 19.384 70.9023 17.656C69.9423 15.928 69.4622 13.9547 69.4622 11.736ZM93.6773 14.04C93.6773 12.2053 94.0186 10.5947 94.7013 9.208C95.4053 7.82133 96.3546 6.75467 97.5493 6.008C98.7439 5.26133 100.077 4.888 101.549 4.888C102.808 4.888 103.907 5.144 104.845 5.656C105.805 6.168 106.541 6.84 107.053 7.672V5.144H112.525V23H107.053V20.472C106.52 21.304 105.773 21.976 104.813 22.488C103.875 23 102.776 23.256 101.517 23.256C100.067 23.256 98.7439 22.8827 97.5493 22.136C96.3546 21.368 95.4053 20.2907 94.7013 18.904C94.0186 17.496 93.6773 15.8747 93.6773 14.04ZM107.053 14.072C107.053 12.7067 106.669 11.6293 105.901 10.84C105.155 10.0507 104.237 9.656 103.149 9.656C102.061 9.656 101.133 10.0507 100.365 10.84C99.6186 11.608 99.2453 12.6747 99.2453 14.04C99.2453 15.4053 99.6186 16.4933 100.365 17.304C101.133 18.0933 102.061 18.488 103.149 18.488C104.237 18.488 105.155 18.0933 105.901 17.304C106.669 16.5147 107.053 15.4373 107.053 14.072ZM121.956 8.12C122.596 7.13867 123.396 6.37067 124.356 5.816C125.316 5.24 126.383 4.952 127.556 4.952V10.744H126.052C124.687 10.744 123.663 11.0427 122.98 11.64C122.297 12.216 121.956 13.24 121.956 14.712V23H116.484V5.144H121.956V8.12ZM147.003 13.784C147.003 14.296 146.972 14.8293 146.908 15.384H134.524C134.609 16.4933 134.961 17.3467 135.58 17.944C136.22 18.52 136.998 18.808 137.916 18.808C139.281 18.808 140.23 18.232 140.764 17.08H146.588C146.289 18.2533 145.745 19.3093 144.956 20.248C144.188 21.1867 143.217 21.9227 142.044 22.456C140.87 22.9893 139.558 23.256 138.108 23.256C136.358 23.256 134.801 22.8827 133.436 22.136C132.07 21.3893 131.004 20.3227 130.236 18.936C129.468 17.5493 129.084 15.928 129.084 14.072C129.084 12.216 129.457 10.5947 130.204 9.208C130.972 7.82133 132.038 6.75467 133.404 6.008C134.769 5.26133 136.337 4.888 138.108 4.888C139.836 4.888 141.372 5.25067 142.716 5.976C144.06 6.70133 145.105 7.736 145.852 9.08C146.62 10.424 147.003 11.992 147.003 13.784ZM141.404 12.344C141.404 11.4053 141.084 10.6587 140.444 10.104C139.804 9.54933 139.004 9.272 138.044 9.272C137.126 9.272 136.348 9.53867 135.708 10.072C135.089 10.6053 134.705 11.3627 134.556 12.344H141.404Z" fill="#2C1943"/>
</svg>
