<svg width="559" height="455" viewBox="0 0 559 455" fill="none" xmlns="http://www.w3.org/2000/svg">
<path d="M1 453.139C1 407.55 14.494 373.374 45.9536 339.773C70.3945 313.669 100.214 295.708 136.381 291.151C190.414 284.343 244.464 280.833 298.266 271.446C355.625 261.438 418.267 251.766 471.844 228.198C503.875 214.108 530.652 193.421 543.822 160.639C554.484 134.099 561.768 97.2933 549.798 70.0485C537.263 41.5173 505.648 21.8709 477.82 10.1665C445.898 -3.2601 413.074 -2.43606 389.212 25.0091C372.784 43.9044 354.762 85.2744 363.228 110.737C370.017 131.157 408.678 132.025 425.071 132.489C463.57 133.581 491.532 124.875 523.813 105.108C536.905 97.0911 550.716 91.2726 557.594 77.7256" stroke="#8FC424" stroke-width="2" stroke-linecap="round" stroke-dasharray="9 24"/>
</svg>
