<svg width="737" height="307" viewBox="0 0 737 307" fill="none" xmlns="http://www.w3.org/2000/svg">
<path d="M1.70712 76.0765C4.33916 79.1403 8.69808 81.4737 11.9713 83.5225C24.0258 91.0677 36.5531 97.6075 49.3931 103.717C85.421 120.859 121.699 129.788 161.853 128.074C182.56 127.19 203.337 124.935 223.929 122.782C245.025 120.578 266.956 118.499 286.751 110.472C306.726 102.372 320.097 86.3256 326.876 66.4153C332.508 49.8745 331.133 31.7225 325.788 15.1325C323.513 8.06975 319.487 1.00231 310.994 2.40361C305.743 3.26987 300.628 5.77547 295.82 7.85329C285.221 12.4338 274.448 17.1162 265.293 24.2275C253.498 33.3895 239.316 48.8669 244.068 65.164C249.829 84.924 274.454 99.0038 290.502 109.305C333.038 136.61 383.374 156.899 433.651 163.765C459.602 167.308 486.579 163.057 512.36 160.118C539.017 157.078 566.759 151.065 593.659 154.256C626.771 158.184 656.609 174.656 681.962 195.575C699.287 209.871 715.832 226.277 727.823 245.329C733.394 254.181 736.545 262.747 735.068 273.15C733.258 285.899 726.1 293.876 717.869 303.128C715.246 306.076 708.325 305.291 703.332 305.27" stroke="#8FC424" stroke-width="3" stroke-linecap="round"/>
</svg>
